<svg width="12" height="12" viewBox="0 0 12 12" fill="none" xmlns="http://www.w3.org/2000/svg">
<path d="M11.0399 4.16434L7.89231 3.62479L6.48526 0.260276C6.44683 0.168158 6.3836 0.0935859 6.3055 0.0482578C6.10963 -0.0657934 5.87161 0.0292493 5.77367 0.260276L4.36662 3.62479L1.21905 4.16434C1.13227 4.17896 1.05293 4.22721 0.992183 4.30032C0.918746 4.38935 0.878279 4.50912 0.879674 4.63332C0.881068 4.75752 0.924211 4.87599 0.999621 4.96269L3.27694 7.58149L2.73891 11.2794C2.72629 11.3654 2.73436 11.4539 2.76221 11.5348C2.79005 11.6156 2.83655 11.6857 2.89643 11.737C2.95632 11.7883 3.0272 11.8188 3.10102 11.825C3.17485 11.8312 3.24867 11.8129 3.31413 11.7721L6.12947 10.0263L8.94481 11.7721C9.02167 11.8204 9.11092 11.8365 9.19646 11.8189C9.41217 11.7751 9.55721 11.5338 9.52002 11.2794L8.982 7.58149L11.2593 4.96269C11.3213 4.89105 11.3622 4.79747 11.3746 4.69511C11.4081 4.43923 11.2568 4.20235 11.0399 4.16434Z" fill="#FC8B40"/>
</svg>
