<svg width="11" height="12" viewBox="0 0 11 12" fill="none" xmlns="http://www.w3.org/2000/svg">
<path d="M1.66062 11.1023C1.64206 11.1891 1.64172 11.2793 1.65964 11.3662C1.67755 11.4531 1.71325 11.5344 1.76406 11.6041C1.81487 11.6738 1.87947 11.7301 1.95301 11.7686C2.02656 11.8072 2.10714 11.8271 2.18873 11.8268C2.29572 11.8268 2.40033 11.7922 2.48935 11.7274L5.43866 9.58074L8.38797 11.7274C8.48023 11.7943 8.58904 11.8287 8.69976 11.8261C8.81049 11.8234 8.91781 11.7838 9.0073 11.7126C9.09678 11.6414 9.16415 11.5419 9.20033 11.4276C9.23651 11.3134 9.23976 11.1897 9.20966 11.0734L8.21897 7.28859L10.6759 4.87462C10.7546 4.79726 10.8108 4.69642 10.8376 4.58456C10.8643 4.4727 10.8604 4.35473 10.8264 4.24525C10.7924 4.13576 10.7298 4.03956 10.6462 3.96854C10.5627 3.89751 10.4619 3.85478 10.3563 3.84564L7.26837 3.57715L5.93211 0.34768C5.88955 0.243665 5.82033 0.15532 5.7328 0.0933067C5.64527 0.0312932 5.54318 -0.00173792 5.43883 -0.00180045C5.33449 -0.00186297 5.23236 0.0310458 5.14477 0.0929543C5.05718 0.154863 4.98787 0.243125 4.94521 0.347089L3.60895 3.57715L0.520973 3.84504C0.417222 3.85402 0.318036 3.89544 0.23528 3.96434C0.152524 4.03325 0.0897037 4.12673 0.0543337 4.23359C0.0189638 4.34046 0.0125421 4.45619 0.0358372 4.56693C0.0591322 4.67768 0.111157 4.77875 0.185689 4.85806L2.46822 7.28682L1.66062 11.1023ZM5.43866 2.02717L6.54472 4.70076L6.86321 4.72855H6.86375L9.01521 4.91483L7.24345 6.65583L7.24291 6.65701L6.99213 6.90302L7.08475 7.25607V7.25784L7.76344 9.851L5.43866 8.15909V2.02717Z" fill="#FC8B40"/>
</svg>
